<svg width="39" height="39" viewBox="0 0 39 39" fill="none" xmlns="http://www.w3.org/2000/svg">
<path d="M26 8.24167C24.0237 7.10068 21.782 6.5 19.5 6.5C17.218 6.5 14.9762 7.10068 13 8.24167C11.0237 9.38266 9.38266 11.0238 8.24167 13C7.10068 14.9763 6.5 17.218 6.5 19.5C6.5 21.782 7.10068 24.0238 8.24167 26C9.38266 27.9762 11.0237 29.6173 13 30.7583C14.9762 31.8993 17.218 32.5 19.5 32.5C21.782 32.5 24.0237 31.8993 26 30.7583" stroke="white" stroke-width="2.5"/>
<path d="M35.75 19.5L36.7261 20.2809L37.3508 19.5L36.7261 18.7191L35.75 19.5ZM21.125 18.25C20.4346 18.25 19.875 18.8096 19.875 19.5C19.875 20.1904 20.4346 20.75 21.125 20.75L21.125 18.25ZM30.2261 28.4059L36.7261 20.2809L34.7739 18.7191L28.2739 26.8441L30.2261 28.4059ZM36.7261 18.7191L30.2261 10.5941L28.2739 12.1559L34.7739 20.2809L36.7261 18.7191ZM35.75 18.25L21.125 18.25L21.125 20.75L35.75 20.75L35.75 18.25Z" fill="white"/>
</svg>
