<svg width="31" height="31" viewBox="0 0 31 31" fill="none" xmlns="http://www.w3.org/2000/svg">
<path fill-rule="evenodd" clip-rule="evenodd" d="M26.6172 15.7898C26.6172 22.09 21.5099 27.1973 15.2097 27.1973C8.90955 27.1973 3.80225 22.09 3.80225 15.7898C3.80225 9.48962 8.90955 4.38232 15.2097 4.38232C21.5099 4.38232 26.6172 9.48962 26.6172 15.7898ZM15.2096 23.395C14.5096 23.395 13.9421 22.8275 13.9421 22.1275V17.0575H8.87215C8.17213 17.0575 7.60466 16.4901 7.60466 15.79C7.60466 15.09 8.17213 14.5225 8.87215 14.5225H13.9421V9.4525C13.9421 8.75248 14.5096 8.185 15.2096 8.185C15.9096 8.185 16.4771 8.75248 16.4771 9.4525V14.5225H21.5471C22.2471 14.5225 22.8146 15.09 22.8146 15.79C22.8146 16.4901 22.2471 17.0575 21.5471 17.0575H16.4771V22.1275C16.4771 22.8275 15.9096 23.395 15.2096 23.395Z" fill="white"/>
</svg>
