<svg width="38" height="38" viewBox="0 0 38 38" fill="none" xmlns="http://www.w3.org/2000/svg">
<path fill-rule="evenodd" clip-rule="evenodd" d="M32.8826 18.79C32.8826 26.5731 26.5731 32.8826 18.79 32.8826C11.0069 32.8826 4.69751 26.5731 4.69751 18.79C4.69751 11.0069 11.0069 4.69751 18.79 4.69751C26.5731 4.69751 32.8826 11.0069 32.8826 18.79ZM18.79 28.185C17.9252 28.185 17.2242 27.4839 17.2242 26.6192V20.3561H10.9609C10.0961 20.3561 9.39509 19.6551 9.39509 18.7903C9.39509 17.9255 10.0961 17.2244 10.9609 17.2244H17.2242V10.9608C17.2242 10.096 17.9252 9.39496 18.79 9.39496C19.6548 9.39496 20.3559 10.096 20.3559 10.9608V17.2244H26.6193C27.4841 17.2244 28.1851 17.9255 28.1851 18.7903C28.1851 19.6551 27.4841 20.3561 26.6193 20.3561H20.3559V26.6192C20.3559 27.4839 19.6548 28.185 18.79 28.185Z" fill="#6067ED"/>
</svg>
